<svg xmlns="http://www.w3.org/2000/svg" width="60" height="60"><path d="M46 34a1 1 0 0 1 1 1v14a1 1 0 1 1-2 0V35a1 1 0 0 1 1-1zM14 50a1 1 0 0 1-1-1v-6a1 1 0 0 1 2 0v6a1 1 0 0 1-1 1zm16-28a1 1 0 0 1 1 1v26a1 1 0 1 1-2 0V23a1 1 0 0 1 1-1z" fill-rule="evenodd" fill="#26e6e6"/><path d="M13 25V11a1 1 0 0 1 2 0v14a1 1 0 0 1-2 0zm5 9a4 4 0 1 1-4-4 4 4 0 0 1 4 4zm-4-2a2 2 0 1 0 2 2 2 2 0 0 0-2-2zm12-18a4 4 0 1 1 4 4 4 4 0 0 1-4-4zm6 0a2 2 0 1 0-2 2 2 2 0 0 0 2-2zm13 3v-6a1 1 0 0 1 2 0v6a1 1 0 1 1-2 0zm5 9a4 4 0 1 1-4-4 4 4 0 0 1 4 4zm-4-2a2 2 0 1 0 2 2 2 2 0 0 0-2-2zm13 36a1 1 0 0 1-1-1V4a2 2 0 0 0-2-2H4a2 2 0 0 0-2 2v52a2 2 0 0 0 2 2h49a1 1 0 1 1 0 2H4a4 4 0 0 1-4-4V4a4 4 0 0 1 4-4h52a4 4 0 0 1 4 4v55a1 1 0 0 1-1 1z" fill="#2f3238" fill-rule="evenodd"/></svg>