<svg xmlns="http://www.w3.org/2000/svg" width="23" height="15"><path fill-rule="evenodd" fill="#FFF" d="M22.386 9.389h-7.349c.042 1.014.393 1.722 1.055 2.131.403.253.888.379 1.455.379.601 0 1.088-.155 1.464-.464.205-.166.386-.398.543-.694h2.695c-.072.599-.399 1.207-.979 1.825-.904.981-2.169 1.471-3.796 1.471-1.343 0-2.527-.413-3.554-1.241-1.027-.825-1.539-2.175-1.539-4.039 0-1.75.463-3.091 1.389-4.025.926-.93 2.129-1.397 3.608-1.397.879 0 1.67.157 2.373.471.703.316 1.286.815 1.743 1.495.415.599.683 1.295.806 2.085.07.464.099 1.133.086 2.003zm-3.442-3.334c-.421-.364-.942-.543-1.564-.543-.678 0-1.203.19-1.575.574-.372.385-.608.907-.704 1.562h4.546c-.047-.701-.282-1.23-.703-1.593zM14.419.684h5.847v1.697h-5.847V.684zm-3.448 6.89c.353.551.532 1.217.532 2 0 .81-.203 1.534-.609 2.177-.258.425-.579.784-.966 1.073-.436.334-.949.563-1.542.686-.592.124-1.234.185-1.928.185H.311V.047h6.594c1.663.024 2.841.51 3.535 1.455.417.58.627 1.273.627 2.082 0 .833-.21 1.502-.632 2.01-.235.283-.583.543-1.041.777.696.253 1.222.654 1.577 1.203zM7.612 2.631c-.421-.143-.958-.213-1.611-.213H3.032v3.009h3.316c.592 0 1.074-.113 1.444-.339.369-.224.554-.625.554-1.197 0-.637-.245-1.057-.734-1.26zm.142 5.286c-.324-.149-.779-.225-1.364-.231H3.032v3.638h3.313c.591 0 1.052-.079 1.382-.239.598-.298.896-.865.896-1.702 0-.712-.29-1.199-.869-1.466z"/></svg>