<svg xmlns="http://www.w3.org/2000/svg" viewBox="0 0 60 60"><path d="M50 60H4c-2.2 0-4-1.8-4-4V10c0-2.2 1.8-4 4-4h43c.6 0 1 .4 1 1s-.4 1-1 1H4c-1.1 0-2 .9-2 2v46c0 1.1.9 2 2 2h46c1.1 0 2-.9 2-2V7c0-.6.4-1 1-1s1 .4 1 1v49c0 2.2-1.8 4-4 4zM7 20h46c.6 0 1 .4 1 1s-.4 1-1 1H7c-.6 0-1-.4-1-1s.4-1 1-1z" fill="#2f3238"/><path d="M8 12c1.1 0 2 .9 2 2s-.9 2-2 2-2-.9-2-2 .9-2 2-2zm8 0c1.1 0 2 .9 2 2s-.9 2-2 2-2-.9-2-2 .9-2 2-2zm8 0c1.1 0 2 .9 2 2s-.9 2-2 2-2-.9-2-2 .9-2 2-2zm35 42c-.6 0-1-.4-1-1V4c0-1.1-.9-2-2-2H7c-.6 0-1-.4-1-1s.4-1 1-1h49c2.2 0 4 1.8 4 4v49c0 .6-.4 1-1 1z" fill="#26e6e6"/></svg>