<svg xmlns="http://www.w3.org/2000/svg" viewBox="0 0 60 60"><path d="M45 51H20c-2.2 0-4-1.8-4-4 0-.7.2-1.4.6-2H16c-2.2 0-4-1.8-4-4h2c0 1.1.9 2 2 2h16v2H20c-1.1 0-2 .9-2 2s.9 2 2 2h25c7.2 0 13-5.8 13-13s-5.8-13-13-13H30c-1.1 0-2 .9-2 2s.9 2 2 2h10v2H30c-2.2 0-4-1.8-4-4s1.8-4 4-4h15c8.3 0 15 6.7 15 15s-6.7 15-15 15zm2-15c-5 0-9-4-9-9h2c0 3.9 3.1 7 7 7 .6 0 1 .4 1 1s-.4 1-1 1zm-11 5H4c-2.2 0-4-1.8-4-4V9c0-.6.4-1 1-1s1 .4 1 1v28c0 1.1.9 2 2 2h32c1.1 0 2-.9 2-2 0-.6.4-1 1-1s1 .4 1 1c0 2.2-1.8 4-4 4zm2-29c0-1.1-.9-2-2-2H7c-.6 0-1-.4-1-1s.4-1 1-1h29c2.2 0 4 1.8 4 4v9h-2v-9zM7 14h26c.6 0 1 .4 1 1s-.4 1-1 1H7c-.6 0-1-.4-1-1s.4-1 1-1z" fill="#2f3238"/><path d="M7 20h14c.6 0 1 .4 1 1s-.4 1-1 1H7c-.6 0-1-.4-1-1s.4-1 1-1zm0 13h26c.6 0 1 .4 1 1s-.4 1-1 1H7c-.6 0-1-.4-1-1s.4-1 1-1z" fill="#26e6e6"/></svg>