<svg xmlns="http://www.w3.org/2000/svg" width="60" height="60"><path d="M59.964 13.176v.071l-6.992 26.022a929.118 929.118 0 0 0-.086.172.97.97 0 0 1-.169.25c-.014.014-.029.025-.043.038a.976.976 0 0 1-.266.18c-.02.009-.041.013-.061.021a.971.971 0 0 1-.311.063c-.013 0-.024.007-.036.007H19.034a.918.918 0 0 1-.308-.055.974.974 0 0 1-.17-.06l-.009-.006A.991.991 0 0 1 18 39c0-.02.01-.037.012-.057L10.214 9H1a1 1 0 1 1 0-2h9.968a.919.919 0 0 1 .3.055.973.973 0 0 1 .173.061h.007A.991.991 0 0 1 12 8c0 .02-.01.037-.012.058L19.786 38h31.456l6.445-24H19a1 1 0 1 1 0-2h40c.024 0 .043.012.067.013a.951.951 0 0 1 .186.012.908.908 0 0 1 .088.044.948.948 0 0 1 .127.063.908.908 0 0 1 .481.617.954.954 0 0 1 .032.159A.925.925 0 0 1 60 13a.947.947 0 0 1-.036.176zM23 44a4 4 0 1 1-4 4 4 4 0 0 1 4-4zm0 6a2 2 0 1 0-2-2 2 2 0 0 0 2 2zm9-3h8a1 1 0 1 1 0 2h-8a1 1 0 1 1 0-2zm17-3a4 4 0 1 1-4 4 4 4 0 0 1 4-4zm0 6a2 2 0 1 0-2-2 2 2 0 0 0 2 2z" fill-rule="evenodd" fill="#2f3238"/><path d="M43 24h-3v4h3a1 1 0 1 1 0 2h-3v3a1 1 0 0 1-2 0v-3h-4v3a1 1 0 0 1-2 0v-3h-3a1 1 0 1 1 0-2h3v-4h-3a1 1 0 1 1 0-2h3v-3a1 1 0 1 1 2 0v3h4v-3a1 1 0 1 1 2 0v3h3a1 1 0 1 1 0 2zm-9 0v4h4v-4h-4z" fill="#26e6e6" fill-rule="evenodd"/></svg>