<svg xmlns="http://www.w3.org/2000/svg" viewBox="0 0 60 60"><path d="M59 60c-.6 0-1-.4-1-1V16c0-1.1-.9-2-2-2H4c-1.1 0-2 .9-2 2v40c0 1.1.9 2 2 2h49c.6 0 1 .4 1 1s-.4 1-1 1H4c-2.2 0-4-1.8-4-4V16c0-2.2 1.8-4 4-4h52c2.2 0 4 1.8 4 4v43c0 .6-.4 1-1 1zM38 12V4c0-1.1-.9-2-2-2H24c-1.1 0-2 .9-2 2v3c0 .6-.4 1-1 1s-1-.4-1-1V4c0-2.2 1.8-4 4-4h12c2.2 0 4 1.8 4 4v8h-2z" fill="#2f3238"/><path d="M17 18c.6 0 1 .4 1 1v34c0 .6-.4 1-1 1s-1-.4-1-1V19c0-.6.4-1 1-1zm-6 0c.6 0 1 .4 1 1v34c0 .6-.4 1-1 1s-1-.4-1-1V19c0-.6.4-1 1-1zm38 0c.6 0 1 .4 1 1v34c0 .6-.4 1-1 1s-1-.4-1-1V19c0-.6.4-1 1-1zm-6 0c.6 0 1 .4 1 1v34c0 .6-.4 1-1 1s-1-.4-1-1V19c0-.6.4-1 1-1z" fill="#26e6e6"/></svg>