<svg xmlns="http://www.w3.org/2000/svg" width="60" height="60"><path d="M57.375 26a1 1 0 0 1-1 1H34a1 1 0 0 1-1-1V3.625a1 1 0 1 1 2 0V25h20.09A28.026 28.026 0 0 0 40 6.722a2.709 2.709 0 0 1-.548-.314.982.982 0 0 1-.452-.815 1 1 0 0 1 1-1 .972.972 0 0 1 .483.142.034.034 0 0 1 .011 0A30.037 30.037 0 0 1 57.4 26h-.025z" fill-rule="evenodd" fill="#26e6e6"/><path d="M53 33H28.395L16.677 44.717a.986.986 0 0 1-1.395-1.395L27 31.605V8.062c-.015 0-.027-.007-.041-.008A23.984 23.984 0 1 0 51.2 38a1.678 1.678 0 0 1 .069-.235.986.986 0 0 1 .95-.765 1 1 0 0 1 1 1 1.2 1.2 0 0 1-.028.313A25.983 25.983 0 1 1 27 6.05v.012a.976.976 0 0 1 .454.122A.973.973 0 0 1 28 6a1 1 0 0 1 1 1v24h24a1 1 0 1 1 0 2z" fill="#2f3238" fill-rule="evenodd"/></svg>