<svg xmlns="http://www.w3.org/2000/svg" width="60" height="60"><path d="M54 42a4 4 0 0 1-4 4H21.394L7.749 59.644A.985.985 0 0 1 7 60a1.017 1.017 0 0 1-1-1.09V44h2v12.542l12.26-12.26a.994.994 0 0 1 .649-.282 1.075 1.075 0 0 1 .127 0H50a2 2 0 0 0 2-2V10a2 2 0 0 0-2-2H4a2 2 0 0 0-2 2v35a1 1 0 0 1-2 0V10a4 4 0 0 1 4-4h46a4 4 0 0 1 4 4v32zM8 44v2" fill-rule="evenodd" fill="#2f3238"/><path d="M17 23a3 3 0 1 1-3 3 3 3 0 0 1 3-3zm0 2a1 1 0 1 1-1 1 1 1 0 0 1 1-1zm10-2a3 3 0 1 1-3 3 3 3 0 0 1 3-3zm0 2a1 1 0 1 1-1 1 1 1 0 0 1 1-1zm10-2a3 3 0 1 1-3 3 3 3 0 0 1 3-3zm0 2a1 1 0 1 1-1 1 1 1 0 0 1 1-1zm22 17a1 1 0 0 1-1-1V4a2 2 0 0 0-2-2H7a1 1 0 1 1 0-2h49a4 4 0 0 1 4 4v37a1 1 0 0 1-1 1z" fill="#26e6e6" fill-rule="evenodd"/></svg>