<svg xmlns="http://www.w3.org/2000/svg" viewBox="0 0 60 60"><path d="M4.8 42H49c.6 0 1 .4 1 1s-.4 1-1 1H5.8M5 42h44M49.4 50H16c-.6 0-1-.4-1-1s.4-1 1-1h35.3M33 0c-.6 0-1 .4-1 1s.4 1 1 1c15.4 1.7 26.5 15.5 24.8 30.8C56.2 48.2 42.4 59.3 27 57.7c-9.2-1-16.8-6.3-21.2-13.7-.4-.6-.7-1.3-1.1-2-2.2-4.5-3.2-9.7-2.6-15.1C3.6 13.8 13.9 3.4 27 2c.6 0 1-.4 1-1s-.4-1-1-1C10.5 1.7-1.5 16.4.2 32.9S16.6 61.4 33 59.7s28.5-16.4 26.8-32.9C58.4 12.6 47.2 1.4 33 0zm20 31c-.6 0-1-.4-1-1 0-12.2-9.8-22-22-22S8 17.8 8 30c0 .6-.4 1-1 1s-1-.4-1-1C6 16.7 16.7 6 30 6s24 10.7 24 24c0 .6-.4 1-1 1z" fill="#2f3238"/><path d="M30 14c.6 0 1 .4 1 1v22c0 .6-.4 1-1 1s-1-.4-1-1V15c0-.6.4-1 1-1z" fill="#26e6e6"/></svg>