<svg xmlns="http://www.w3.org/2000/svg" width="23" height="24"><path fill-rule="evenodd" fill="#FFF" d="M11.232.982C5.037.982.013 6.006.013 12.204c0 6.199 5.024 11.222 11.219 11.222 6.196 0 11.219-5.023 11.219-11.222 0-6.198-5.023-11.222-11.219-11.222zm7.118 5.17c1.263 1.482 2.065 3.366 2.203 5.43-2.02-.108-4.439-.106-6.383.078-.244-.621-.497-1.23-.769-1.813 2.243-.969 3.967-2.244 4.949-3.695zm-7.118-3.298c2.267 0 4.346.808 5.964 2.152-1.016 1.287-2.607 2.404-4.595 3.248-1.088-2.008-2.336-3.739-3.668-5.104.737-.188 1.504-.296 2.299-.296zm-4.23 1.019c1.351 1.342 2.619 3.058 3.728 5.058-2.112.643-4.531 1.014-7.11 1.014-.488 0-.968-.019-1.444-.046.67-2.634 2.455-4.819 4.826-6.026zm-5.103 7.885c.532.023 1.069.033 1.615.027 2.943-.037 5.688-.494 8.04-1.25.22.462.431.935.632 1.422-.321.074-.607.156-.836.252-3.221 1.349-5.755 3.53-7.13 6.167-1.45-1.649-2.337-3.804-2.337-6.172 0-.15.009-.298.016-.446zm9.333 9.798c-2.161 0-4.146-.74-5.729-1.972 1.244-2.465 3.464-4.504 6.264-5.774.266-.121.615-.22 1.017-.308.331.926.633 1.884.892 2.875.406 1.55.689 3.078.865 4.565-1.029.392-2.142.614-3.309.614zm5.053-1.491c-.176-1.502-.462-3.043-.872-4.61-.199-.76-.427-1.496-.67-2.217 1.833-.15 4.033-.127 5.777 0-.316 2.867-1.926 5.338-4.235 6.827z"/></svg>