<svg xmlns="http://www.w3.org/2000/svg" viewBox="0 0 60 60"><path d="M40.7 19.3c.4.4.4 1.1 0 1.5L22.8 38.7c-.4.4-1.1.4-1.5 0-.4-.4-.4-1.1 0-1.5l17.9-17.9c.4-.4 1.1-.4 1.5 0z" fill="#26e6e6"/><path d="M58.8 12.5L22.5 48.8c-.6.6-1.3 1-2.1 1.1-.1.1-.3.1-.4.1h-9c-.6 0-1-.4-1-1v-8.7V40v-.2c.1-.9.5-1.7 1.1-2.3L47.4 1.2c1.6-1.6 4.1-1.6 5.7 0l5.7 5.7c1.6 1.5 1.6 4.1 0 5.6zm-1.4-4.3l-5.7-5.7c-.8-.8-2.1-.8-2.8 0L12 39.4V48h8.5l36.9-36.9c.8-.8.8-2.1 0-2.9zM11.3 38.3c.4-.4 1.1-.4 1.5 0l8.9 8.9c.4.4.4 1.1 0 1.5-.4.4-1 .4-1.4 0l-8.9-8.9c-.5-.4-.4-1.1-.1-1.5zm30-29c.4-.4 1.1-.4 1.5 0l3.9 3.9c.4.4.4 1.1 0 1.5s-1.1.4-1.5 0l-3.9-3.9c-.4-.4-.4-1.1 0-1.5zM1 0c.6 0 1 .4 1 1v58c0 .6-.4 1-1 1s-1-.4-1-1V1c0-.6.4-1 1-1zm59 59c0 .6-.4 1-1 1H7c-.6 0-1-.4-1-1s.4-1 1-1h52c.6 0 1 .4 1 1zM1 0h30c.6 0 1 .4 1 1s-.4 1-1 1H1c-.6 0-1-.4-1-1s.4-1 1-1zm57 59V29c0-.6.4-1 1-1s1 .4 1 1v30c0 .6-.4 1-1 1s-1-.4-1-1z" fill="#2f3238"/></svg>