<svg id="gouge" xmlns="http://www.w3.org/2000/svg" width="60" height="60" viewBox="0 0 60 60">
  <metadata><?xpacket begin="﻿" id="W5M0MpCehiHzreSzNTczkc9d"?>
<x:xmpmeta xmlns:x="adobe:ns:meta/" x:xmptk="Adobe XMP Core 5.6-c142 79.160924, 2017/07/13-01:06:39        ">
   <rdf:RDF xmlns:rdf="http://www.w3.org/1999/02/22-rdf-syntax-ns#">
      <rdf:Description rdf:about=""/>
   </rdf:RDF>
</x:xmpmeta>
                                                                                                    
                                                                                                    
                                                                                                    
                                                                                                    
                                                                                                    
                                                                                                    
                                                                                                    
                                                                                                    
                                                                                                    
                                                                                                    
                                                                                                    
                                                                                                    
                                                                                                    
                                                                                                    
                                                                                                    
                                                                                                    
                                                                                                    
                                                                                                    
                                                                                                    
                                                                                                    
                           
<?xpacket end="w"?></metadata>
<defs>
    <style>
      .cls-1 {
        fill: #2f3238;
      }

      .cls-1, .cls-2 {
        fill-rule: evenodd;
      }

      .cls-2 {
        fill: #26e6e6;
      }
    </style>
  </defs>
  <path id="black" class="cls-1" d="M54,30a1,1,0,0,1-2,0A22,22,0,1,0,8,30a1,1,0,0,1-2,0A24,24,0,0,1,54,30ZM30,60a30.082,30.082,0,0,1-3-60V0a1,1,0,0,1,0,2.005V2.014A28.034,28.034,0,0,0,4.753,42H49a1,1,0,0,1,0,2H5.8a27.91,27.91,0,0,0,43.747,6H16a1,1,0,0,1,0-2H51.406A28.077,28.077,0,0,0,33,2.014V2.005A1,1,0,0,1,33,0v0A30.082,30.082,0,0,1,30,60Z"/>
  <path id="blue" class="cls-2" d="M30,14a1,1,0,0,1,1,1V37a1,1,0,0,1-2,0V15A1,1,0,0,1,30,14Z"/>
</svg>
