<svg xmlns="http://www.w3.org/2000/svg" width="118" height="38"><path d="M50.76 26.024c-.334.215-.492 1.853-1.437 1.846-1.676-.012-.25-3.492.169-4.884.245-.814 1.057-3.381 2.529-7.773 2.543-.4 5.014-1.035 5.683-1.68a13.025 13.025 0 0 0 2.633-4.153A64.467 64.467 0 0 1 53.353 11l2.674-8.743a.513.513 0 0 0-.718-.135 10.375 10.375 0 0 0-2.758 1.75c-.585.7-1.735 4.008-2.926 7.77l-.3.048c-1.536.239-2.97.447-4.342.62l.387-.75c.527-.6 2.034-3.282 2.863-4.728 1.6-2.783 1.132-4.715.613-5.429a2.864 2.864 0 0 0-3.483-.378 4.407 4.407 0 0 0-1.584 2.636c-.864 2.735-2.48 7.9-2.48 7.9l-.419 1.167a54.753 54.753 0 0 1-11.43-.348c-4.381-.563-7.9-1.385-11.254.231a11.157 11.157 0 0 0-1.862 1.128c-.271-2.624-3.058-3.711-4.6-3.9a8.36 8.36 0 0 0-7.273 2.732A14.767 14.767 0 0 0 .579 19.1c-1.1 3.948-.55 6.8 1 8.618 1.985 2.336 6.045 2.567 8.551.927 1.128-.739 2.633-2.456 3.4-5.722a5.023 5.023 0 0 0 1.09.006 3.426 3.426 0 0 0 2.43-1.489c-.256.959-.59 1.98-1.235 3.877-.4 1.174-.627 2.393.087 3.295a2.779 2.779 0 0 0 2.394.874c1.876.054 4.187-2.277 4.187-2.277s.224 2.142 3.381 2.277a4.4 4.4 0 0 0 3.736-1.793s.053 1.647 2.215 1.793c2.094.141 3.8-2.146 4.954-4.347l-2.157 6.438s-1 3.189-.06 4.941c.748 1.4 2.739 1.619 3.683 1.42.99-.208 2.483-.67 4.026-3.474 1.834-3.335 2.186-11.251 2.215-12.792a33.32 33.32 0 0 0-.4-6.059h3.549c.248 0 .512-.007.788-.019-1.265 4.182-2.364 8.034-2.61 8.759-1.676 4.924 2.082 5.337 2.634 5.34 3.767.025 4.725-2.514 4.725-2.514a3.173 3.173 0 0 0 .355-1.154c-.248-.694-2.039-.463-2.757-.001zM47.2 3.556c.261-.819.886-1.522 1.165-.773s-.319 3.344-1.916 5.769c-.573.87-1.611 2.648-1.83 2.977.539-1.566 1.981-6.092 2.581-7.973zm-34.4 18.1a1.958 1.958 0 0 1-1.617-1.712.758.758 0 0 1 1.257-.788 2.727 2.727 0 0 1 .36 2.497zm16.887 2.713a5.026 5.026 0 0 1-1.726 2.676 1.548 1.548 0 0 1-2.534-1.177 9.671 9.671 0 0 1 1.125-4.168c.888-1.968 1.805-2.991 2.784-2.861a1.359 1.359 0 0 1 1.108 1.641 12.757 12.757 0 0 1-.758 3.886zm3.352 2.855c-1.08.011-.435-2.063-.232-2.663.341-1 2.267-7.007 2.267-7.007s-2.2-.242-2.873.233a7.077 7.077 0 0 0-.958 1.195 1.521 1.521 0 0 0-1.666-1.428 5.7 5.7 0 0 0-4.35 1.82 9.642 9.642 0 0 0-3.082 6.651s-1.912 2.055-3.009.949c-.472-.476.442-2.838.838-4.05.618-1.891 1.676-5.37 1.676-5.37a9.967 9.967 0 0 0-3.113.233c-1.1.6-1.832 2.749-2.865 3.605a2.145 2.145 0 0 1-1.986.377 3.947 3.947 0 0 0-.108-2.593 1.926 1.926 0 0 0-2.754-.885 2.038 2.038 0 0 0-.579 2.4 3.52 3.52 0 0 0 2.195 2.1A7.627 7.627 0 0 1 10.775 26c-1.618 1.949-3.895 1.8-5.238-.107-1.042-1.483-.778-5.358.818-8.641s3.145-4.359 4.875-4.744a2.721 2.721 0 0 1 3.456 3.3l-.081.335a.4.4 0 0 0 .046.309c.283.284 1.095.541 2.347-.838 1.9-2.093 6.815-1.559 13.409-.692a67.7 67.7 0 0 0 9.553.681l-2.173 6.487c-1.078 2.352-2.763 5.11-4.749 5.13zm8.6 4.059c-1.183 2.87-2.161 3.543-2.892 3.827-.678.264-1 .061-1.164-.4a4.533 4.533 0 0 1 .186-1.959L43.1 16.4a33.526 33.526 0 0 1-1.463 14.879zm73.73-17.717A12.984 12.984 0 0 0 118 9.283s-2.021 1.084-8.892 2.2l.379-.54a47.536 47.536 0 0 0 2.863-4.728c1.748-3.179 1.132-4.716.613-5.43a2.864 2.864 0 0 0-3.483-.377 4.408 4.408 0 0 0-1.58 2.636c-.864 2.735-2.48 7.9-2.48 7.9s-.2.533-.405 1.128a61.789 61.789 0 0 1-16.7-.019c-4.381-.563-7.662-1.154-11.014.462a11.309 11.309 0 0 0-1.626.957c-.081-1.508-1.04-3.591-5.159-3.78a10.582 10.582 0 0 0-7.243 3 14.452 14.452 0 0 0-3.881 6.53c-1.1 3.948-.55 6.8 1 8.619A5.377 5.377 0 0 0 67 28.9a5.317 5.317 0 0 0 1.916-2.077 5.975 5.975 0 0 0 1.663 2.051c1.159.923 4.03 1.249 6.188-2.077a11.744 11.744 0 0 0 1.177-3.143 3.282 3.282 0 0 0 .977.173 2.329 2.329 0 0 0 1.245-.395c-.522 2.012-.359 3.8.73 4.98 1.8 1.953 7.731 2.067 9.278-5.216a4.859 4.859 0 0 0 2.286-1.73 2.782 2.782 0 0 0 2.742.023c.208-.1-.654 2.006-1.3 3.9-.4 1.174-.627 2.393.087 3.3a2.742 2.742 0 0 0 2.394.874c2.561.029 4.936-4.324 4.936-4.324l-1.311 3.637a.51.51 0 0 0 .54.674c1.2 0 1.524.042 2.183.042a.865.865 0 0 0 .629-.716l1.182-3.231s1.915-.016 1.915 1.616a2.091 2.091 0 0 0 2.3 2.308c1.034.026 2.73-.115 3.548-1.134a8.546 8.546 0 0 0 .739-1.354c.164-.461.61-1.113-.33-1.29a8.2 8.2 0 0 0-1.466.087 1.186 1.186 0 0 0-1.033.923c-.158.464-.4 1.154-.883 1.154-.959 0 0-1.385-1.676-2.538a6.746 6.746 0 0 0-2.394-.462 6.481 6.481 0 0 0 3.016-.692c1.436-.692 3.927-1.616 4.167-5.308.15-2.314-4.167-2.538-5.843 0l1.107-3.5c2.561-.221 6.739-1.007 7.658-1.893zm-4.05-10.623c.261-.818.886-1.522 1.165-.773s-.319 3.344-1.915 5.769c-.573.87-1.611 2.648-1.831 2.977.537-1.565 1.982-6.092 2.581-7.973zM69.873 22.437s-.668-2.451 0-3.693c.6-1.11 1.417-.584 1.437.231a4.6 4.6 0 0 1-1.437 3.462zm18.936-1.19c-.239.006-.5.01-.79.01-1.2 0-2.527-.261-2.634.461-.239 1.616 2.954 1.781 2.993 1.78-.014.074-.05.222-.061.3-1.256 4.385-4.608 4.385-5.087 2.538a7.358 7.358 0 0 1 .718-4.384c1.378-3.231 3.352-3.462 4.07-2.77a2.474 2.474 0 0 1 .791 2.065zm3.673-1.047a1.318 1.318 0 0 1-.531-1.692.661.661 0 0 1 1.2.116 1.607 1.607 0 0 1-.669 1.576zm10.16.079s-1.708 4.33-3.41 5.966c0 0-1.7 1.826-2.257.781-.309-.575.8-3.4 1.2-4.615.619-1.891 1.562-4.786 1.562-4.786s-2.617-.291-3.335.632a14.567 14.567 0 0 1-1.676 2.077 1.14 1.14 0 0 1-1.517.306s1.265-1.415.52-2.6a1.612 1.612 0 0 0-2.105-.509 1.541 1.541 0 0 0-.758 1.788 2.968 2.968 0 0 0 .778 1.471 2.03 2.03 0 0 1-1.27.341c-.089-1.882-.845-3.768-3.865-3.789-1.918-.013-4.437 1.519-5.686 4.238a1.709 1.709 0 0 1-1.66.6 1.018 1.018 0 0 1-.872-.417c.195-2.219-.006-3.495-1-3.841a1.48 1.48 0 0 0-1.74.827c-.439 1.072.087 2.417.931 3.532a6.845 6.845 0 0 1-.672 2.9c-2.343 4.18-5.935.488-5.7-1.127 4.789-6.692.468-7.88-.981-7.108-2.936 1.564-1.147 6.969-.971 7.48-.054 1.112-2.785 2.885-4.273 1.012-1.174-1.477-.45-5.974 1.146-9.257s4.04-4.406 6.2-4.359a2.331 2.331 0 0 1 2.612 2.138 7.624 7.624 0 0 1-.2 2.183c-.066.293.545 1.448 2.7-.629s5.019-2.263 11.972-.923c5.052.973 11.126.961 15.777.934-.66 2.139-1.45 4.753-1.45 4.753zm6.59.978a4.312 4.312 0 0 1-4.289 2.538l.937-2.769c1.198-2.539 5.268-3.462 3.352.231z" fill="#fff" fill-rule="evenodd"/></svg>