<svg xmlns="http://www.w3.org/2000/svg" width="60" height="60"><path d="M45 60H15a4 4 0 0 1-4-4V4a4 4 0 0 1 4-4h30a4 4 0 0 1 4 4v52a4 4 0 0 1-4 4zm0-58H15a2 2 0 0 0-2 2v44h29a1 1 0 0 1 0 2H13v6a2 2 0 0 0 2 2h30a2 2 0 0 0 2-2V12H18a1 1 0 1 1 0-2h29V4a2 2 0 0 0-2-2z" fill-rule="evenodd" fill="#2f3238"/><path d="M30 52a2 2 0 1 1-2 2 2 2 0 0 1 2-2zM27 5h6a1 1 0 1 1 0 2h-6a1 1 0 1 1 0-2zm-9.715 15.357l4.073-4.073a.96.96 0 0 1 1.358 1.358l-4.073 4.073a.96.96 0 0 1-1.358-1.358zm0 6l10.073-10.073a.96.96 0 1 1 1.358 1.358L18.642 27.715a.96.96 0 0 1-1.357-1.358z" fill="#26e6e6" fill-rule="evenodd"/></svg>