<svg xmlns="http://www.w3.org/2000/svg" width="24" height="20"><path fill-rule="evenodd" fill="#FFF" d="M23.343 2.8a9.582 9.582 0 0 1-2.751.755c.989-.593 1.749-1.532 2.106-2.651-.925.549-1.95.948-3.041 1.163-.873-.931-2.118-1.513-3.496-1.513-2.645 0-4.789 2.144-4.789 4.79 0 .375.042.742.124 1.092-3.98-.2-7.509-2.107-9.871-5.005-.412.707-.648 1.53-.648 2.408 0 1.662.845 3.128 2.13 3.987a4.7648 4.7648 0 0 1-2.169-.599v.061c0 2.32 1.65 4.256 3.841 4.696-.402.11-.825.169-1.262.169-.308 0-.608-.03-.901-.087.609 1.903 2.378 3.289 4.474 3.327-1.639 1.285-3.704 2.051-5.948 2.051-.387 0-.768-.023-1.142-.067 2.119 1.359 4.636 2.152 7.341 2.152 8.809 0 13.626-7.299 13.626-13.629 0-.208-.004-.415-.013-.621A9.7264 9.7264 0 0 0 23.343 2.8z"/></svg>